<svg width="103" height="87" viewBox="0 0 103 87" fill="none" xmlns="http://www.w3.org/2000/svg">
<circle cx="41.5" cy="45.5" r="41.5" fill="#479CFC"/>
<g clip-path="url(#clip0_21_839)">
<path d="M95.3449 27.0651C95.7802 26.7748 95.9253 26.1944 95.7802 25.759V25.614C94.7645 20.6797 92.007 16.3261 87.9437 13.2786C87.5083 12.9883 87.073 12.8432 86.4926 13.1335C81.4133 14.8749 77.3499 14.8749 74.1573 12.9884C69.078 9.94088 68.2073 2.68478 68.2073 2.68478C68.2073 2.10435 67.7719 1.66899 67.1915 1.52375C62.2575 -0.507999 56.7428 -0.507999 51.6635 1.52375C51.2281 1.66882 50.7928 2.10418 50.7928 2.68478C50.7928 2.68478 49.9221 9.79565 44.8428 12.9884C41.6502 15.0202 37.4416 15.0202 32.3623 13.1335C31.9269 12.8432 31.4916 12.9884 31.0562 13.2786C26.9929 16.3261 24.2356 20.6797 23.2197 25.6138V25.7588C23.2197 26.1942 23.3647 26.7746 23.655 27.0649C28.0087 31.4186 30.4758 37.949 30.4758 44.9148C30.4758 51.8806 28.0087 58.4111 23.655 62.7647C23.2197 63.055 23.0746 63.6354 23.2197 64.0708V64.2159C24.2355 69.1499 26.9929 73.5035 31.0562 76.5511C31.4916 76.8414 31.9269 76.9865 32.3623 76.8414C33.233 76.5511 51.5183 70.3109 58.1938 86.1291C58.3389 86.7095 58.9194 86.9998 59.4999 86.9998C60.0803 86.9998 60.6609 86.7095 60.806 85.984C67.6267 70.3109 85.912 76.406 86.6375 76.6963C87.0728 76.9866 87.5082 76.8414 87.9435 76.5513C92.0069 73.5037 94.7643 69.1501 95.7801 64.216V64.071C95.7801 63.6356 95.635 63.0552 95.3447 62.7649C86.3473 53.7673 86.3473 36.0625 95.3449 27.0651ZM86.7827 73.6489C83.0095 72.6332 67.1913 69.005 59.4999 82.2112C54.8559 74.3746 47.3097 72.4881 41.2146 72.4881C37.1513 72.4881 33.6684 73.3588 32.2171 73.7942C29.3146 71.3271 27.1378 67.9894 26.2671 64.2162C30.7657 59.4272 33.3779 52.4614 33.3779 44.9152C33.3779 37.3689 30.7657 30.4031 26.2671 25.4689C27.1378 21.6957 29.3146 18.358 32.2171 15.8909C37.8768 17.7774 42.6658 17.6324 46.439 15.3105C51.5183 12.1175 53.1147 6.02245 53.55 3.70057C57.4683 2.39448 61.5316 2.39448 65.4499 3.70057C65.8853 6.02245 67.4816 12.1175 72.5608 15.3103C76.334 17.6322 81.123 17.7774 86.7827 15.8907C89.8302 18.3578 91.862 21.6955 92.7327 25.4687C83.2998 35.6271 83.2998 53.9124 92.7327 64.071C91.862 67.844 89.8302 71.1818 86.7827 73.6489Z" fill="#333C4F"/>
<path d="M61.3866 71.7623C60.8061 72.3427 60.0805 72.7781 59.5 73.3587C58.9196 72.7783 58.1939 72.1977 57.6135 71.7623C56.8879 71.3269 56.0171 71.472 55.5818 72.0526C55.1464 72.633 55.2915 73.649 55.8721 74.0844C56.8879 74.6648 57.6135 75.3904 58.4842 76.2612C58.7745 76.5515 59.0647 76.6965 59.5 76.6965C59.9354 76.6965 60.2257 76.5515 60.5158 76.2612C61.3866 75.5355 62.2573 74.81 63.128 74.0844C63.7084 73.649 63.8537 72.6332 63.4183 72.0526C62.9829 71.472 61.967 71.3269 61.3866 71.7623Z" fill="#333C4F"/>
<path d="M50.7927 68.2794C48.9062 67.5537 46.7294 67.1183 44.5526 66.9733C43.6818 66.9733 43.1014 67.5537 42.9562 68.2794C42.8111 69.1501 43.5366 69.7305 44.2623 69.8757C46.294 70.0208 48.1805 70.4562 49.922 71.0368C50.067 71.0368 50.2123 71.0368 50.3573 71.0368C50.9378 71.0368 51.5184 70.6014 51.6634 70.166C51.9536 69.2953 51.5182 68.5697 50.7927 68.2794Z" fill="#333C4F"/>
<path d="M37.0063 66.9733C35.9905 67.1183 34.9746 67.2636 34.1039 67.4086C33.5234 66.683 33.0881 66.1025 32.7978 65.3769C33.3782 64.6512 33.9588 63.7805 34.5392 62.9098C34.8295 62.1841 34.6843 61.3134 33.9588 60.878C33.2331 60.5877 32.3624 60.733 31.927 61.4584C31.3466 62.4742 30.766 63.4902 30.0405 64.3609C29.7502 64.7963 29.7502 65.3767 29.8955 65.8121C30.4759 67.4085 31.3466 68.7146 32.5076 70.0206C32.6527 70.3109 33.0881 70.456 33.5234 70.456C33.5234 70.456 33.6685 70.456 33.8137 70.456C34.9748 70.1657 36.1356 70.0206 37.2966 69.8756C38.1674 69.7305 38.7478 69.0049 38.6027 68.2792C38.4575 67.4086 37.8771 66.8282 37.0063 66.9733Z" fill="#333C4F"/>
<path d="M37.5866 34.4663C37.4415 33.5955 36.5708 33.1602 35.8451 33.4505C34.9744 33.5955 34.539 34.4663 34.8293 35.1919C35.4097 37.0784 35.7 39.1102 35.9903 41.1419C36.1354 41.8676 36.716 42.448 37.4415 42.448C37.4415 42.448 37.5866 42.448 37.5866 42.5931C38.4573 42.448 39.0377 41.7224 38.8927 40.9967C38.6025 38.8199 38.1672 36.6431 37.5866 34.4663Z" fill="#333C4F"/>
<path d="M37.4417 47.3819C36.571 47.2369 35.9905 47.9624 35.8453 48.688C35.7002 50.8649 35.2649 52.8966 34.6843 54.7831C34.5392 55.5088 34.9746 56.2343 35.7001 56.5246C35.8451 56.5246 35.9904 56.5246 36.1354 56.5246C36.8611 56.5246 37.4415 56.0892 37.4415 55.5088C38.022 53.477 38.4573 51.1552 38.7476 48.9783C38.7478 48.1076 38.1674 47.5272 37.4417 47.3819Z" fill="#333C4F"/>
<path d="M34.394 26.9199C33.9587 26.0491 33.3782 25.1784 32.7976 24.4527C33.0879 23.7271 33.5233 23.1467 33.9587 22.5662C34.9744 22.7113 35.9904 22.8565 36.8611 23.0016C37.5868 23.0016 38.3123 22.4212 38.4575 21.6955C38.4575 20.9698 37.8771 20.2444 37.0064 20.0991C35.9906 19.9541 34.8296 19.8088 33.6685 19.5187C33.0881 19.3736 32.5075 19.5187 32.2174 19.9541C31.2016 21.1151 30.3309 22.5662 29.7503 24.0174C29.46 24.4527 29.6052 25.0332 29.8953 25.4685C30.621 26.3393 31.2014 27.3551 31.7818 28.371C32.0721 28.8064 32.6526 29.0967 33.0879 29.0967C33.3782 29.0967 33.6684 29.0967 33.8136 28.9516C34.5391 28.5163 34.8294 27.6455 34.394 26.9199Z" fill="#333C4F"/>
<path d="M49.9222 16.3261C48.3258 17.6322 46.5843 18.7932 44.5527 19.3736C43.8271 19.6639 43.3917 20.5346 43.682 21.2601C43.9723 21.8406 44.5527 22.2759 45.1332 22.2759C45.2782 22.2759 45.4235 22.2759 45.4235 22.2759C47.7453 21.4052 49.9222 20.2442 51.8088 18.5027C52.3893 17.9223 52.5345 17.0516 51.9539 16.471C51.3733 15.8907 50.5026 15.7456 49.9222 16.3261Z" fill="#333C4F"/>
<path d="M63.128 7.03839C62.9829 6.45796 62.5475 6.16766 61.9669 6.02259C60.3705 5.7323 58.6291 5.7323 56.8876 6.02259C56.3072 6.16766 55.8718 6.45796 55.7266 7.03839C55.4363 8.19941 55.001 9.2152 54.5656 10.231C54.2753 10.9567 54.5656 11.8274 55.2913 12.1175C55.4363 12.2626 55.7266 12.2626 55.8717 12.2626C56.4521 12.2626 56.8875 11.9723 56.8875 11.3918C57.3228 10.5211 57.7582 9.50533 58.0485 8.6346C58.9192 8.48954 59.6449 8.48954 60.5156 8.6346C60.951 9.65039 61.2413 10.5211 61.6766 11.3918C61.9669 12.1175 62.8377 12.4076 63.5631 12.1175C64.2886 11.8274 64.5789 10.9565 64.2888 10.231C63.8536 9.2152 63.4183 8.19924 63.128 7.03839Z" fill="#333C4F"/>
<path d="M73.867 22.2761C74.4474 22.2761 75.028 21.8408 75.1731 21.2603C75.4634 20.3896 75.028 19.6639 74.3023 19.3738C72.2706 18.7934 70.5291 17.7774 68.9329 16.3263C68.3525 15.8909 67.4818 15.8909 66.9012 16.4713C66.4658 17.0518 66.4658 17.9225 67.0462 18.5031C68.9327 20.2445 71.1096 21.5506 73.4316 22.2763C73.5767 22.2761 73.7217 22.2761 73.867 22.2761Z" fill="#333C4F"/>
<path d="M82.1389 23.0016C83.1547 23.0016 84.0254 22.7113 85.0413 22.5662C85.4767 23.1467 85.9121 23.7273 86.2024 24.4527C85.6219 25.1784 85.0413 26.0491 84.606 26.9199C84.3157 27.6455 84.4609 28.5163 85.1864 28.9516C85.4767 29.0967 85.6218 29.0967 85.9121 29.0967C86.3474 29.0967 86.7828 28.8064 87.0731 28.371C87.6535 27.3552 88.2341 26.3393 88.9596 25.4685C89.2499 25.0332 89.2499 24.4527 89.1047 24.0174C88.5242 22.5662 87.6535 21.1149 86.6376 19.9541C86.2022 19.5187 85.7668 19.3736 85.1864 19.5187C84.0254 19.809 83.0096 19.9541 81.8486 20.0991C80.9778 20.2442 80.3974 20.9698 80.5425 21.6955C80.6875 22.5662 81.2681 23.1468 82.1389 23.0016Z" fill="#333C4F"/>
<path d="M81.4133 42.4479H81.5583C82.284 42.4479 82.8644 42.0125 83.0095 41.1418C83.1546 38.965 83.5899 36.9332 84.1705 35.0467C84.3156 34.321 83.8802 33.4503 83.1547 33.3053C82.4292 33.1602 81.7036 33.5956 81.4133 34.321C80.8328 36.3528 80.3975 38.6747 80.1072 40.8515C80.1072 41.5772 80.6876 42.3028 81.4133 42.4479Z" fill="#333C4F"/>
<path d="M82.8643 56.5246C83.0094 56.5246 83.1546 56.5246 83.1546 56.5246C84.0254 56.3795 84.4607 55.5088 84.1704 54.7831C83.59 52.7514 83.2997 50.7198 83.0094 48.688C82.8643 47.8173 82.2837 47.2369 81.413 47.382C80.5423 47.527 79.9619 48.2527 80.1069 48.9783C80.3972 51.1552 80.8326 53.332 81.413 55.5088C81.7035 56.0892 82.2839 56.5246 82.8643 56.5246Z" fill="#333C4F"/>
<path d="M84.6058 62.9099C85.0411 63.7807 85.6216 64.6514 86.2022 65.377C85.7668 66.1027 85.3314 66.8282 84.8961 67.4088C83.8803 67.2637 83.0096 67.1185 81.9936 66.9734C81.1229 66.9734 80.5425 67.5539 80.3972 68.2795C80.3972 69.0052 80.9776 69.7307 81.7033 69.8759C82.8643 70.021 84.0252 70.1662 85.1862 70.4563C85.3313 70.4563 85.3313 70.4563 85.4765 70.4563C85.9119 70.4563 86.3472 70.3113 86.6375 70.021C87.7986 68.7149 88.6693 67.4088 89.2497 65.8124C89.54 65.377 89.3948 64.7966 89.1047 64.3613C88.379 63.4905 87.7986 62.4747 87.2181 61.4588C86.7828 60.7331 85.912 60.443 85.1864 60.8783C84.4607 61.3137 84.1704 62.1843 84.6058 62.9099Z" fill="#333C4F"/>
<path d="M74.4474 66.8282C72.2706 67.1185 70.2389 67.5539 68.2073 68.1343C67.4816 68.4246 67.0462 69.2954 67.3365 70.0209C67.6268 70.6013 68.2073 71.0366 68.7877 71.0366C68.9328 71.0366 69.078 70.8916 69.078 70.8916C70.8194 70.3112 72.706 69.8758 74.7377 69.7306C75.6084 69.5855 76.1889 68.8598 76.0438 68.1342C75.8986 67.2636 75.3181 66.8282 74.4474 66.8282Z" fill="#333C4F"/>
</g>
<defs>
<clipPath id="clip0_21_839">
<rect width="87" height="87" fill="white" transform="translate(16)"/>
</clipPath>
</defs>
</svg>
