<svg width="49" height="49" viewBox="0 0 49 49" fill="none" xmlns="http://www.w3.org/2000/svg">
<g clip-path="url(#clip0_21_926)">
<path d="M48.9206 37.9625C48.7574 36.9834 48.1047 36.0858 47.2887 35.4332L27.8702 20.7438V16.5041C27.8702 15.2802 26.8911 14.3011 25.6672 14.3011H25.3409V12.5877C27.6254 12.1798 29.4205 10.2216 29.4205 7.77386C29.4205 5.08137 27.2175 2.87842 24.525 2.87842C21.8325 2.87842 19.6296 5.08137 19.6296 7.77386C19.6296 8.2634 19.9559 8.58973 20.4455 8.58973C20.935 8.58973 21.2613 8.2634 21.2613 7.77386C21.2613 5.97889 22.73 4.51026 24.5249 4.51026C26.3199 4.51026 27.7885 5.97889 27.7885 7.77386C27.7885 9.56882 26.3199 11.0375 24.5249 11.0375C24.0354 11.0375 23.7091 11.4454 23.7091 11.935V14.3011H23.4643C22.2404 14.3011 21.2613 15.2802 21.2613 16.5041V20.6204L1.67958 35.4332C0.782052 36.0859 0.210949 36.9834 0.0477362 37.9625C-0.115477 39.1863 0.129295 40.4102 0.945265 41.3893C1.76114 42.2868 2.90344 42.8579 4.1273 42.8579H10.6546C10.6546 44.6529 12.1232 46.1215 13.9182 46.1215C15.7131 46.1215 17.1818 44.6529 17.1818 42.8579H31.8681C31.8681 44.6529 33.3367 46.1215 35.1317 46.1215C36.9266 46.1215 38.3953 44.6529 38.3953 42.8579H44.9226C46.1464 42.8579 47.2887 42.2868 48.023 41.3893C48.839 40.4102 49.1653 39.1863 48.9206 37.9625ZM22.8115 16.5041C22.8115 16.1778 23.0563 15.933 23.3826 15.933H24.1391C24.2509 15.9856 24.3806 16.0145 24.5249 16.0145C24.6555 16.0145 24.774 15.9848 24.8782 15.933H25.5856C25.9119 15.933 26.1567 16.1778 26.1567 16.5041V19.4414L25.2592 18.707C25.0512 18.5407 24.7796 18.4596 24.4984 18.4628C24.4191 18.4618 24.3398 18.4698 24.2616 18.4859C24.0691 18.5205 23.8792 18.5935 23.709 18.707L22.8114 19.4414L22.8115 16.5041ZM13.9182 44.4897C13.0206 44.4897 12.2863 43.7553 12.2863 42.8578V39.5942V37.9624C12.2863 37.0648 13.0206 36.3305 13.9182 36.3305C14.8157 36.3305 15.55 37.0648 15.55 37.9624V39.5942V42.8578C15.5499 43.7553 14.8156 44.4897 13.9182 44.4897ZM31.8681 37.9625H17.1818C17.1818 36.1675 15.7131 34.6989 13.9182 34.6989C12.1232 34.6989 10.6546 36.1675 10.6546 37.9625H6.57502L24.5249 24.3368L42.4748 37.9625H38.3953C38.3953 36.1675 36.9266 34.6989 35.1317 34.6989C33.3367 34.6989 31.8681 36.1674 31.8681 37.9625ZM17.1818 41.2261V39.5942H31.8681V41.2261H17.1818ZM35.1317 44.4897C34.2342 44.4897 33.4998 43.7553 33.4998 42.8578V39.5942V37.9624C33.4998 37.0648 34.2342 36.3305 35.1317 36.3305C36.0292 36.3305 36.7635 37.0648 36.7635 37.9624V39.5942V42.8578C36.7635 43.7553 36.0292 44.4897 35.1317 44.4897ZM46.7992 40.3285C46.3096 40.8996 45.6569 41.2261 44.9226 41.2261H38.3953V39.5942H44.9226H45.4937L45.9016 38.3703L25.096 22.6234C24.7697 22.3786 24.2802 22.3786 23.9537 22.6234L3.88253 37.8808C3.5562 38.1256 3.39298 38.5336 3.5562 38.9415C3.71941 39.3493 4.04574 39.5942 4.45373 39.5942H10.6546V41.2261H4.1273C3.39298 41.2261 2.74023 40.8997 2.25068 40.3285C1.76114 39.7573 1.59793 39.0231 1.76114 38.2888C1.8427 37.7177 2.16913 37.1465 2.74023 36.7386L22.122 22.0752L24.565 20.2876L46.3095 36.7386C46.7991 37.1466 47.2071 37.7177 47.2886 38.2888C47.4519 39.0231 47.2887 39.7574 46.7992 40.3285Z" fill="#9697AB"/>
</g>
<defs>
<clipPath id="clip0_21_926">
<rect width="49" height="49" fill="white"/>
</clipPath>
</defs>
</svg>
