<svg width="98" height="98" viewBox="0 0 98 98" fill="none" xmlns="http://www.w3.org/2000/svg">
<circle cx="41.5" cy="56.5" r="41.5" fill="#479CFC"/>
<g clip-path="url(#clip0_21_902)">
<path d="M97.8411 75.9249C97.5147 73.9667 96.2094 72.1717 94.5774 70.8664L55.7404 41.4876V33.0082C55.7404 30.5605 53.7822 28.6023 51.3345 28.6023H50.6818V25.1755C55.2508 24.3595 58.8409 20.4432 58.8409 15.5477C58.8409 10.1627 54.435 5.75684 49.0501 5.75684C43.6651 5.75684 39.2592 10.1627 39.2592 15.5477C39.2592 16.5268 39.9118 17.1795 40.8909 17.1795C41.87 17.1795 42.5227 16.5268 42.5227 15.5477C42.5227 11.9578 45.4599 9.02053 49.0499 9.02053C52.6398 9.02053 55.577 11.9578 55.577 15.5477C55.577 19.1376 52.6398 22.0749 49.0499 22.0749C48.0708 22.0749 47.4181 22.8909 47.4181 23.87V28.6023H46.9286C44.4809 28.6023 42.5227 30.5605 42.5227 33.0082V41.2407L3.35916 70.8664C1.5641 72.1719 0.421899 73.9667 0.0954724 75.9249C-0.230954 78.3726 0.25859 80.8204 1.89053 82.7785C3.52228 84.5736 5.80688 85.7158 8.2546 85.7158H21.3092C21.3092 89.3057 24.2464 92.243 27.8364 92.243C31.4263 92.243 34.3635 89.3057 34.3635 85.7158H63.7362C63.7362 89.3057 66.6734 92.243 70.2634 92.243C73.8533 92.243 76.7906 89.3057 76.7906 85.7158H89.8451C92.2928 85.7158 94.5774 84.5736 96.0461 82.7785C97.678 80.8204 98.3307 78.3726 97.8411 75.9249ZM45.6231 33.0082C45.6231 32.3555 46.1126 31.866 46.7653 31.866H48.2783C48.5018 31.9711 48.7611 32.0291 49.0499 32.0291C49.3111 32.0291 49.548 31.9696 49.7565 31.866H51.1712C51.8238 31.866 52.3134 32.3555 52.3134 33.0082V38.8827L50.5183 37.4141C50.1024 37.0813 49.5591 36.9192 48.9969 36.9257C48.8382 36.9236 48.6796 36.9396 48.5232 36.9718C48.1383 37.041 47.7583 37.1871 47.4179 37.4141L45.6229 38.8827L45.6231 33.0082ZM27.8364 88.9793C26.0413 88.9793 24.5727 87.5107 24.5727 85.7156V79.1884V75.9247C24.5727 74.1297 26.0413 72.661 27.8364 72.661C29.6314 72.661 31.1 74.1297 31.1 75.9247V79.1884V85.7156C31.0999 87.5107 29.6312 88.9793 27.8364 88.9793ZM63.7362 75.9249H34.3635C34.3635 72.335 31.4263 69.3977 27.8364 69.3977C24.2464 69.3977 21.3092 72.335 21.3092 75.9249H13.15L49.0499 48.6736L84.9497 75.9249H76.7906C76.7906 72.335 73.8533 69.3977 70.2634 69.3977C66.6734 69.3977 63.7362 72.3348 63.7362 75.9249ZM34.3635 82.4521V79.1884H63.7362V82.4521H34.3635ZM70.2634 88.9793C68.4683 88.9793 66.9997 87.5107 66.9997 85.7156V79.1884V75.9247C66.9997 74.1297 68.4683 72.661 70.2634 72.661C72.0584 72.661 73.5271 74.1297 73.5271 75.9247V79.1884V85.7156C73.5271 87.5107 72.0584 88.9793 70.2634 88.9793ZM93.5984 80.6571C92.6193 81.7993 91.3138 82.4521 89.8451 82.4521H76.7906V79.1884H89.8451H90.9873L91.8033 76.7407L50.1921 45.2468C49.5394 44.7572 48.5603 44.7572 47.9075 45.2468L7.76506 75.7616C7.1124 76.2512 6.78597 77.0671 7.1124 77.8829C7.43882 78.6987 8.09148 79.1884 8.90745 79.1884H21.3092V82.4521H8.2546C6.78597 82.4521 5.48046 81.7995 4.50137 80.6571C3.52228 79.5147 3.19585 78.0462 3.52228 76.5776C3.6854 75.4354 4.33825 74.293 5.48046 73.4772L44.2439 44.1505L49.13 40.5753L92.6191 73.4772C93.5982 74.2932 94.4141 75.4354 94.5773 76.5776C94.9039 78.0462 94.5774 79.5148 93.5984 80.6571Z" fill="#333C4F"/>
</g>
<defs>
<clipPath id="clip0_21_902">
<rect width="98" height="98" fill="white"/>
</clipPath>
</defs>
</svg>
