<svg width="100" height="92" viewBox="0 0 100 92" fill="none" xmlns="http://www.w3.org/2000/svg">
<circle cx="41.5" cy="50.5" r="41.5" fill="#479CFC"/>
<g clip-path="url(#clip0_21_869)">
<path d="M99.6007 77.6706L85.2246 64.0932C85.1992 64.0678 85.1727 64.0447 85.1462 64.0218C88.5524 59.0866 90.5492 53.1042 90.5492 46.6557C90.5492 37.1812 86.242 28.7109 79.4801 23.0945L85.4003 17.1744C86.8705 18.141 88.6371 18.7023 90.5492 18.7023C95.7405 18.7023 99.8669 14.5759 99.8669 9.38453C99.8669 4.19318 95.7405 0.0667725 90.5492 0.0667725C85.3578 0.0667725 81.2314 4.19318 81.2314 9.38453C81.2314 11.6905 82.0469 13.7853 83.4072 15.4028L77.3699 21.4401C77.2935 21.3629 77.2061 21.2922 77.105 21.2315C76.9904 21.1627 76.8717 21.1109 76.7519 21.0737C71.9244 17.893 66.1453 16.0402 59.9336 16.0402C53.3446 16.0402 47.241 18.1234 42.2453 21.6666L36.2381 15.6594C37.7319 14.0101 38.6357 11.8141 38.6357 9.38453C38.6357 4.19318 34.5093 0.0667725 29.3179 0.0667725C24.1264 0.0666165 20 4.19302 20 9.38437C20 14.5757 24.1264 18.7021 29.3178 18.7021C31.1045 18.7021 32.7648 18.2133 34.1745 17.3605L40.1276 23.3135C33.5155 28.9298 29.3178 37.303 29.3178 46.6554C29.3178 53.1014 31.3129 59.0817 34.7167 64.0159L20.3993 77.6706C19.8669 78.203 19.8669 79.0017 20.3993 79.5342C20.6656 79.8005 20.9317 79.9336 21.3311 79.9336C21.5973 79.9336 21.9967 79.8005 22.2628 79.5342L36.3141 66.1336C41.93 72.9354 50.4265 77.2714 59.9335 77.2714C69.2509 77.2714 77.5967 73.1052 83.2125 66.536C83.3896 66.4724 83.543 66.3754 83.6674 66.2489L97.604 79.5342C97.8703 79.8005 98.2696 79.9336 98.5357 79.9336C98.9351 79.9336 99.2013 79.8005 99.6007 79.5342C100.133 79.0017 100.133 78.203 99.6007 77.6706ZM22.6623 9.38437C22.6623 5.6573 25.5907 2.72874 29.3179 2.72874C33.0451 2.72874 35.9734 5.6573 35.9734 9.38437C35.9734 13.1114 33.045 16.04 29.3178 16.04C25.5905 16.04 22.6623 13.1114 22.6623 9.38437ZM32.3794 51.1815C32.3656 51.1585 32.3504 51.1378 32.3357 51.1163C32.1028 49.6635 31.98 48.1741 31.98 46.6557C31.98 45.3262 32.0749 44.019 32.2544 42.739C33.0121 43.7276 34.0324 44.7258 35.3079 45.724C42.0966 50.7823 54.476 54.6424 68.3197 54.6424C74.5702 54.6424 81.0647 53.9061 87.3355 52.2049C86.4521 56.5926 84.5418 60.6076 81.8657 63.9893C54.174 64.9448 38.9692 60.9344 32.3794 51.1815ZM74.4931 22.7881C69.7052 30.0977 63.6721 37.2757 55.3798 37.3362C52.1223 36.5658 49.268 35.5024 46.9075 34.2426C54.7922 32.5035 60.2645 25.7841 64.5753 19.0877C68.1581 19.6864 71.5101 20.9648 74.4931 22.7881ZM41.8366 34.2024C41.9569 34.3567 42.1141 34.4769 42.3007 34.5579C45.3528 36.7926 49.581 38.681 54.7009 39.8917C54.8331 39.9463 54.9791 39.9817 55.1377 39.9943C58.8829 40.8431 63.0909 41.3312 67.654 41.3312C73.5726 41.3312 79.882 40.5493 86.7085 38.6046C87.4738 41.1543 87.8871 43.8563 87.8871 46.6556C87.8871 47.5771 87.8412 48.488 87.7542 49.3866C87.6643 49.3957 87.5749 49.4161 87.4877 49.4509C74.576 53.0449 50.3496 53.7105 36.9053 43.5939C34.6423 41.8635 33.3113 39.9999 33.3113 38.6689C33.3113 38.5258 33.2935 38.3918 33.2609 38.2673C34.2773 35.0312 35.8659 32.0488 37.9088 29.4388C38.6274 31.0845 39.9692 32.694 41.8366 34.2024ZM85.8366 36.1314C77.2409 38.4956 69.2363 39.0729 62.3766 38.4547C68.2584 35.8063 72.8289 30.1192 76.7132 24.2959C80.7355 27.3189 83.914 31.4025 85.8366 36.1314ZM90.5492 2.72874C94.2763 2.72874 97.2048 5.65715 97.2048 9.38437C97.2048 13.1116 94.2764 16.04 90.5492 16.04C86.8221 16.04 83.8936 13.1116 83.8936 9.38437C83.8936 5.65715 86.822 2.72874 90.5492 2.72874ZM61.5695 18.7511C55.5441 27.7388 49.9843 31.7819 43.4631 32.0022C41.3466 30.3551 40.1586 28.6211 39.9898 27.0696C45.0615 21.9059 52.1221 18.7023 59.9336 18.7023C60.4829 18.7021 61.0279 18.7198 61.5695 18.7511ZM34.011 57.1326C41.4422 63.7254 54.2331 66.7554 73.9102 66.7554C75.7034 66.7554 77.4972 66.7552 79.3959 66.7199C74.3633 71.6023 67.5007 74.6088 59.9335 74.6088C48.198 74.609 38.1558 67.3804 34.011 57.1326Z" fill="#333C4F"/>
<path d="M30.6489 5.39099C27.7205 5.39099 25.3245 7.787 25.3245 10.7154C25.3245 11.5141 25.8569 12.0465 26.6555 12.0465C27.4542 12.0465 27.9866 11.5141 27.9866 10.7154C27.9866 9.25112 29.1846 8.05312 30.6489 8.05312C31.4475 8.05312 31.9799 7.52072 31.9799 6.72205C31.9799 5.92339 31.4475 5.39099 30.6489 5.39099Z" fill="#333C4F"/>
<path d="M87.887 12.0467C88.6856 12.0467 89.218 11.5143 89.218 10.7156C89.218 9.25137 90.416 8.05336 91.8803 8.05336C92.679 8.05336 93.2114 7.52097 93.2114 6.7223C93.2114 5.92363 92.679 5.39124 91.8803 5.39124C88.9519 5.39124 86.5559 7.78724 86.5559 10.7156C86.5559 11.5142 87.0883 12.0467 87.887 12.0467Z" fill="#333C4F"/>
</g>
<defs>
<clipPath id="clip0_21_869">
<rect width="80" height="80" fill="white" transform="translate(20)"/>
</clipPath>
</defs>
</svg>
