<svg width="105" height="92" viewBox="0 0 105 92" fill="none" xmlns="http://www.w3.org/2000/svg">
<circle cx="41.5" cy="50.5" r="41.5" fill="#479CFC"/>
<g clip-path="url(#clip0_21_887)">
<path d="M104.532 23.7459C103.909 23.1224 102.973 23.1224 102.35 23.7459C96.9678 28.8371 92.5357 29.4473 87.9142 25.4542L89.4105 24.2135C93.4638 20.0043 93.4638 13.3008 89.4105 9.24765C85.3571 5.19431 78.6536 5.19431 74.4445 9.40358L73.2449 10.8542L71.6383 9.24765C67.4292 5.19431 60.7256 5.19431 56.6724 9.24765C54.6458 11.2742 53.5545 13.9245 53.5545 16.7306C53.5545 19.5367 54.6458 22.187 56.6724 24.2135L59.7517 27.1698L37.7495 53.7744L32.5085 48.5334C28.2994 44.4801 21.5957 44.4801 17.5426 48.5334C15.5158 50.56 14.4245 53.2103 14.4245 56.0164C14.4245 58.8224 15.5158 61.4727 17.5424 63.4993L24.2236 70.1295L13.3333 83.298C12.8657 83.9216 12.8657 84.7011 13.4892 85.3246C13.8011 85.6365 14.1128 85.7922 14.5806 85.7922C14.8925 85.7922 15.3601 85.6363 15.516 85.4804L28.688 74.5594L37.965 83.7656C38.2769 84.0775 38.5886 84.2333 39.0564 84.2333C39.3682 84.2333 39.8359 84.0773 40.1477 83.9214C40.7713 83.2978 40.7713 82.3624 40.1477 81.7389L31.028 72.6192L50.7114 56.2993L55.4253 61.1605C57.4519 63.1871 60.1022 64.1225 62.5966 64.1225C65.5586 64.1225 68.3648 62.8754 70.5473 61.1605C74.6007 56.9512 74.6007 50.2478 70.5473 46.1946L67.0029 42.7919L85.512 27.4459C88.2397 29.9256 91.0855 31.2287 93.9318 31.2287C97.3614 31.2287 100.947 29.5138 104.533 25.9283C105.156 25.3049 105.156 24.3695 104.532 23.7459ZM58.8547 22.031C57.4517 20.628 56.6722 18.7572 56.6722 16.7306C56.6722 14.704 57.4517 12.8332 58.8547 11.4302C61.8167 8.46816 66.4936 8.46816 69.4556 11.4302L71.2688 13.2433L61.7237 24.7852L58.8547 22.031ZM19.7249 61.3168C18.3219 59.9138 17.5424 58.0429 17.5424 56.0164C17.5424 53.9898 18.3219 52.1189 19.7249 50.7159C22.6869 47.7539 27.3638 47.7539 30.3258 50.7159L35.7735 56.1637L26.1763 67.7684L19.7249 61.3168ZM26.2726 72.5412L26.4446 72.3334L26.4805 72.3689L26.2726 72.5412ZM28.389 69.9807L73.4671 15.4416L77.3284 19.3029L75.8474 20.7839C75.2239 21.4075 75.2239 22.3429 75.8474 22.9664C76.1593 23.2783 76.471 23.4341 76.9387 23.4341C77.4065 23.4341 77.7182 23.2781 78.0301 22.9664L83.1746 17.8219C83.7981 17.1984 83.7981 16.263 83.1746 15.6394C82.551 15.0159 81.6156 15.0159 80.9921 15.6394L79.5111 17.1204L75.4425 13.0518L76.7828 11.4302C78.1859 10.0271 80.0567 9.24765 82.0833 9.24765C84.1098 9.24765 85.8247 10.0271 87.2278 11.4302C88.6308 12.8332 89.4103 14.704 89.4103 16.7306C89.4103 18.7572 88.6308 20.628 87.3837 21.8751L28.8295 70.4214L28.389 69.9807ZM68.3645 48.5334C71.1705 51.4954 71.1705 56.1723 68.3645 58.9783C65.5584 61.3168 60.7256 61.9403 57.7636 58.9783L53.1023 54.3171L64.6084 44.7772L68.3645 48.5334Z" fill="#333C4F"/>
</g>
<defs>
<clipPath id="clip0_21_887">
<rect width="92" height="92" fill="white" transform="translate(13)"/>
</clipPath>
</defs>
</svg>
