<svg width="184" height="74" viewBox="0 0 184 74" fill="none" xmlns="http://www.w3.org/2000/svg">
<g clip-path="url(#clip0_21_458)">
<path d="M35.7109 35.5998V15.8841H45.5639V35.4C45.5639 40.4659 48.1147 42.8764 52.0147 42.8764C55.9148 42.8764 58.4656 40.569 58.4656 35.6513V15.8841H68.3185V35.3484C68.3185 46.6854 61.8677 51.6546 51.9151 51.6546C41.9626 51.6546 35.7109 46.5888 35.7109 35.5998Z" fill="#333C4F"/>
<path d="M89.075 15.8841H99.3263L107.679 29.4801L116.032 15.8841H126.286V51.0037H116.632V30.8368L107.679 44.5843H107.48L98.5777 30.9367V51.0037H89.075V15.8841Z" fill="#333C4F"/>
<path d="M146.288 33.5438V33.4439C146.288 23.3604 154.39 15.1815 165.194 15.1815C175.997 15.1815 184 23.2573 184 33.344V33.4439C184 43.5273 175.898 51.7062 165.094 51.7062C154.29 51.7062 146.288 43.6304 146.288 33.5438ZM174.096 33.5438V33.4439C174.096 28.378 170.446 23.9631 165.094 23.9631C159.742 23.9631 156.24 28.2781 156.24 33.344V33.4439C156.24 38.5098 159.893 42.9247 165.194 42.9247C170.494 42.9247 174.096 38.6097 174.096 33.5438Z" fill="#333C4F"/>
<path d="M0 61.4287H3.60772L5.75693 68.5796L8.13423 61.3933H11.0737L13.451 68.5796L15.6002 61.4287H19.1373L15.0188 73.8775H12.0439L9.56061 66.7621L7.09657 73.8775H4.12173L0 61.4287Z" fill="#479CFC"/>
<path d="M25.8387 61.4287H29.273V73.7905H25.8387V61.4287Z" fill="#479CFC"/>
<path d="M36.8064 61.4287H39.9933L45.0627 67.9609V61.4287H48.4423V73.7905H45.4514L40.1892 67.0102V73.7905H36.8096V61.4287H36.8064Z" fill="#479CFC"/>
<path d="M58.9153 64.4289H55.2177V61.4287H66.0247V64.4289H62.3271V73.7873H58.9121V64.4289H58.9153Z" fill="#479CFC"/>
<path d="M72.8 61.4287H82.7108V64.3419H76.1797V66.2143H82.094V68.9148H76.1797V70.8741H82.7976V73.7873H72.8V61.4255V61.4287Z" fill="#479CFC"/>
<path d="M89.8235 61.4287H95.6511C97.5337 61.4287 98.838 61.9218 99.6636 62.7693C100.386 63.4751 100.756 64.4289 100.756 65.6471V65.6825C100.756 67.571 99.7535 68.8245 98.2211 69.4787L101.161 73.7873H97.2188L94.7355 70.0427H93.2385V73.7873H89.8235V61.4255V61.4287ZM95.4905 67.3615C96.6534 67.3615 97.3216 66.7975 97.3216 65.8952V65.8598C97.3216 64.8898 96.6181 64.3935 95.4744 64.3935H93.2385V67.3615H95.4905Z" fill="#479CFC"/>
<path d="M117.914 61.4287H127.77V64.4289H121.329V66.5301H127.157V69.3724H121.329V73.7873H117.914V61.4255V61.4287Z" fill="#479CFC"/>
<path d="M134.604 61.4287H144.514V64.3419H137.983V66.2143H143.897V68.9148H137.983V70.8741H144.601V73.7873H134.604V61.4255V61.4287Z" fill="#479CFC"/>
<path d="M150.689 71.9504L152.591 69.6721C153.805 70.6421 155.161 71.1545 156.587 71.1545C157.503 71.1545 157.994 70.8354 157.994 70.3069V70.2715C157.994 69.7591 157.589 69.4755 155.916 69.0888C153.294 68.4894 151.267 67.7482 151.267 65.2056V65.1701C151.267 62.8757 153.079 61.216 156.038 61.216C158.132 61.216 159.771 61.78 161.107 62.8595L159.401 65.2797C158.274 64.4837 157.043 64.0616 155.951 64.0616C155.122 64.0616 154.717 64.416 154.717 64.8575V64.893C154.717 65.4569 155.138 65.7051 156.847 66.095C159.681 66.7137 161.441 67.6322 161.441 69.9428V69.9782C161.441 72.5047 159.453 74.0032 156.459 74.0032C154.277 74.0032 152.199 73.3136 150.686 71.9537L150.689 71.9504Z" fill="#479CFC"/>
<path d="M171.037 64.4289H167.34V61.4287H178.147V64.4289H174.449V73.7873H171.034V64.4289H171.037Z" fill="#479CFC"/>
<path d="M10.1453 22.9608V9.74829H184V0H10.1453H6.92628H0.427246V15.8841V22.9608V51.0037H27.0852V42.4735H10.1292V22.9608H10.1453Z" fill="#333C4F"/>
</g>
<defs>
<clipPath id="clip0_21_458">
<rect width="184" height="74" fill="white"/>
</clipPath>
</defs>
</svg>
